<svg width="2560" height="400" viewBox="0 0 2560 400" fill="none" xmlns="http://www.w3.org/2000/svg">
<g clip-path="url(#clip0_1644_2)">
<rect width="2560" height="400" fill="#130038"/>
<rect x="2559.5" y="401.5" width="2561" height="398" transform="rotate(-180 2559.5 401.5)" fill="url(#paint0_radial_1644_2)"/>
<path d="M2562 354.5L-1 354.5" stroke="#4E0A6C" stroke-width="9"/>
<path d="M2562 274.5L-1 274.5" stroke="#3B0663" stroke-width="8"/>
<path d="M2562 209.5L-1 209.5" stroke="#2A025C" stroke-width="8"/>
<path d="M2562 154.5L-1 154.5" stroke="#260259" stroke-width="7"/>
<path d="M2562 105.5L-1 105.5" stroke="#200156" stroke-width="7"/>
<path d="M2562.5 355.5L2056.5 -8.00004" stroke="url(#paint1_linear_1644_2)" stroke-width="7"/>
<path d="M2185 411.5L1798 -2.00003" stroke="url(#paint2_linear_1644_2)" stroke-width="7"/>
<path d="M1730 404.5L1540 -0.500017" stroke="url(#paint3_linear_1644_2)" stroke-width="7"/>
<path d="M-3 355.5L503 -7.99996" stroke="url(#paint4_linear_1644_2)" stroke-width="7"/>
<path d="M374.5 411.5L761.5 -1.99997" stroke="url(#paint5_linear_1644_2)" stroke-width="7"/>
<path d="M829.5 404.5L1019.5 -0.499983" stroke="url(#paint6_linear_1644_2)" stroke-width="7"/>
<path d="M1284 402L1275.5 -0.500001" stroke="url(#paint7_linear_1644_2)" stroke-width="7"/>
<rect x="2559.5" y="57.5" width="2561" height="54" transform="rotate(-180 2559.5 57.5)" fill="#180051"/>
</g>
<defs>
<radialGradient id="paint0_radial_1644_2" cx="0" cy="0" r="1" gradientUnits="userSpaceOnUse" gradientTransform="translate(3840 401.5) rotate(90) scale(241 1550.76)">
<stop stop-color="#42086B"/>
<stop offset="0.854167" stop-color="#180051"/>
</radialGradient>
<linearGradient id="paint1_linear_1644_2" x1="2309.5" y1="355.5" x2="2309.5" y2="50" gradientUnits="userSpaceOnUse">
<stop stop-color="#530B6D"/>
<stop offset="1" stop-color="#180051"/>
</linearGradient>
<linearGradient id="paint2_linear_1644_2" x1="1991.5" y1="411.5" x2="1991.5" y2="-2.00002" gradientUnits="userSpaceOnUse">
<stop stop-color="#530B6D"/>
<stop offset="0.915174" stop-color="#180051"/>
</linearGradient>
<linearGradient id="paint3_linear_1644_2" x1="1635" y1="404.5" x2="1635" y2="-0.500008" gradientUnits="userSpaceOnUse">
<stop stop-color="#530B6D"/>
<stop offset="0.922002" stop-color="#180051"/>
</linearGradient>
<linearGradient id="paint4_linear_1644_2" x1="250" y1="355.5" x2="250" y2="41" gradientUnits="userSpaceOnUse">
<stop stop-color="#530B6D"/>
<stop offset="1" stop-color="#1B0154"/>
</linearGradient>
<linearGradient id="paint5_linear_1644_2" x1="568" y1="411.5" x2="568" y2="40" gradientUnits="userSpaceOnUse">
<stop stop-color="#530B6D"/>
<stop offset="1" stop-color="#1B0154"/>
</linearGradient>
<linearGradient id="paint6_linear_1644_2" x1="924.5" y1="404.5" x2="924.5" y2="33" gradientUnits="userSpaceOnUse">
<stop stop-color="#530B6D"/>
<stop offset="1" stop-color="#180051"/>
</linearGradient>
<linearGradient id="paint7_linear_1644_2" x1="1279.75" y1="402" x2="1279.75" y2="48" gradientUnits="userSpaceOnUse">
<stop stop-color="#530B6D"/>
<stop offset="1" stop-color="#180051"/>
</linearGradient>
<clipPath id="clip0_1644_2">
<rect width="2560" height="400" fill="white"/>
</clipPath>
</defs>
</svg>
