<svg width="28" height="28" viewBox="0 0 28 28" fill="none" xmlns="http://www.w3.org/2000/svg">
<path d="M5.25 26.25H7V28H5.25V26.25Z" fill="white"/>
<path d="M3.5 26.25H5.25V28H3.5V26.25Z" fill="white"/>
<path d="M3.5 24.5H5.25V26.25H3.5V24.5Z" fill="white"/>
<path d="M3.5 22.75H5.25V24.5H3.5V22.75Z" fill="white"/>
<path d="M3.5 21H5.25V22.75H3.5V21Z" fill="white"/>
<path d="M3.5 19.25H5.25V21H3.5V19.25Z" fill="white"/>
<path d="M3.5 17.5H5.25V19.25H3.5V17.5Z" fill="white"/>
<path d="M3.5 15.75H5.25V17.5H3.5V15.75Z" fill="white"/>
<path d="M3.5 14H5.25V15.75H3.5V14Z" fill="white"/>
<path d="M3.5 12.25H5.25V14H3.5V12.25Z" fill="white"/>
<path d="M1.75 12.25H3.5V14H1.75V12.25Z" fill="white"/>
<path d="M0 12.25H1.75V14H0V12.25Z" fill="white"/>
<path d="M1.75 10.5H3.5V12.25H1.75V10.5Z" fill="white"/>
<path d="M3.5 10.5H5.25V12.25H3.5V10.5Z" fill="white"/>
<path d="M5.25 8.75H7V10.5H5.25V8.75Z" fill="white"/>
<path d="M7 7H8.75V8.75H7V7Z" fill="white"/>
<path d="M8.75 5.25H10.5V7H8.75V5.25Z" fill="white"/>
<path d="M10.5 3.5H12.25V5.25H10.5V3.5Z" fill="white"/>
<path d="M12.25 1.75H14V3.5H12.25V1.75Z" fill="white"/>
<path d="M15.75 3.5H17.5V5.25H15.75V3.5Z" fill="white"/>
<path d="M19.25 7H21V8.75H19.25V7Z" fill="white"/>
<path d="M21 8.75H22.75V10.5H21V8.75Z" fill="white"/>
<path d="M22.75 10.5H24.5V12.25H22.75V10.5Z" fill="white"/>
<path d="M22.75 12.25H24.5V14H22.75V12.25Z" fill="white"/>
<path d="M3.5 8.75H5.25V10.5H3.5V8.75Z" fill="white"/>
<path d="M5.25 7H7V8.75H5.25V7Z" fill="white"/>
<path d="M7 5.25H8.75V7H7V5.25Z" fill="white"/>
<path d="M8.75 3.5H10.5V5.25H8.75V3.5Z" fill="white"/>
<path d="M10.5 1.75H12.25V3.5H10.5V1.75Z" fill="white"/>
<path d="M12.25 0H14V1.75H12.25V0Z" fill="white"/>
<path d="M14 1.75H15.75V3.5H14V1.75Z" fill="white"/>
<path d="M15.75 1.75H17.5V3.5H15.75V1.75Z" fill="white"/>
<path d="M14 0H15.75V1.75H14V0Z" fill="white"/>
<path d="M17.5 5.25H19.25V7H17.5V5.25Z" fill="white"/>
<path d="M19.25 5.25H21V7H19.25V5.25Z" fill="white"/>
<path d="M21 7H22.75V8.75H21V7Z" fill="white"/>
<path d="M17.5 3.5H19.25V5.25H17.5V3.5Z" fill="white"/>
<path d="M17.5 1.75H19.25V3.5H17.5V1.75Z" fill="white"/>
<path d="M17.5 0H19.25V1.75H17.5V0Z" fill="white"/>
<path d="M19.25 0H21V1.75H19.25V0Z" fill="white"/>
<path d="M21 0H22.75V1.75H21V0Z" fill="white"/>
<path d="M22.75 0H24.5V1.75H22.75V0Z" fill="white"/>
<path d="M22.75 1.75H24.5V3.5H22.75V1.75Z" fill="white"/>
<path d="M22.75 3.5H24.5V5.25H22.75V3.5Z" fill="white"/>
<path d="M22.75 5.25H24.5V7H22.75V5.25Z" fill="white"/>
<path d="M22.75 7H24.5V8.75H22.75V7Z" fill="white"/>
<path d="M24.5 8.75H22.75V10.5H24.5V8.75Z" fill="white"/>
<path d="M28 12.25H26.25V14H28V12.25Z" fill="white"/>
<path d="M26.25 10.5H24.5V12.25H26.25V10.5Z" fill="white"/>
<path d="M26.25 12.25H24.5V14H26.25V12.25Z" fill="white"/>
<path d="M24.5 15.75H22.75V17.5H24.5V15.75Z" fill="white"/>
<path d="M24.5 14H22.75V15.75H24.5V14Z" fill="white"/>
<path d="M24.5 17.5H22.75V19.25H24.5V17.5Z" fill="white"/>
<path d="M24.5 19.25H22.75V21H24.5V19.25Z" fill="white"/>
<path d="M24.5 21H22.75V22.75H24.5V21Z" fill="white"/>
<path d="M24.5 22.75H22.75V24.5H24.5V22.75Z" fill="white"/>
<path d="M24.5 22.75H22.75V24.5H24.5V22.75Z" fill="white"/>
<path d="M24.5 24.5H22.75V26.25H24.5V24.5Z" fill="white"/>
<path d="M7 26.25H8.75V28H7V26.25Z" fill="white"/>
<path d="M8.75 26.25H10.5V28H8.75V26.25Z" fill="white"/>
<path d="M10.5 26.25H12.25V28H10.5V26.25Z" fill="white"/>
<path d="M10.5 24.5H12.25V26.25H10.5V24.5Z" fill="white"/>
<path d="M10.5 22.75H12.25V24.5H10.5V22.75Z" fill="white"/>
<path d="M10.5 21H12.25V22.75H10.5V21Z" fill="white"/>
<path d="M10.5 19.25H12.25V21H10.5V19.25Z" fill="white"/>
<path d="M10.5 17.5H12.25V19.25H10.5V17.5Z" fill="white"/>
<path d="M12.25 17.5H14V19.25H12.25V17.5Z" fill="white"/>
<path d="M14 17.5H15.75V19.25H14V17.5Z" fill="white"/>
<path d="M15.75 17.5H17.5V19.25H15.75V17.5Z" fill="white"/>
<path d="M15.75 19.25H17.5V21H15.75V19.25Z" fill="white"/>
<path d="M15.75 21H17.5V22.75H15.75V21Z" fill="white"/>
<path d="M15.75 22.75H17.5V24.5H15.75V22.75Z" fill="white"/>
<path d="M15.75 24.5H17.5V26.25H15.75V24.5Z" fill="white"/>
<path d="M15.75 26.25H17.5V28H15.75V26.25Z" fill="white"/>
<path d="M17.5 26.25H19.25V28H17.5V26.25Z" fill="white"/>
<path d="M19.25 26.25H21V28H19.25V26.25Z" fill="white"/>
<path d="M21 26.25H22.75V28H21V26.25Z" fill="white"/>
<path d="M22.75 26.25H24.5V28H22.75V26.25Z" fill="white"/>
</svg>
