<svg width="204" height="18" viewBox="0 0 204 18" fill="none" xmlns="http://www.w3.org/2000/svg">
<mask id="path-1-outside-1_1464_1338" maskUnits="userSpaceOnUse" x="0" y="0" width="204" height="18" fill="black">
<rect fill="white" width="204" height="18"/>
<path d="M12.424 17H3.272V14.728H10.152V7.848H12.424V17ZM1 3.272H3.272V14.728H1V3.272ZM12.424 1V3.272H3.272V1H12.424Z"/>
<path d="M23.272 17V14.728H30.152V17H23.272ZM21 3.272H23.272V14.728H21V3.272ZM30.152 1V3.272H23.272V1H30.152ZM30.152 3.272H32.424V14.728H30.152V3.272Z"/>
<path d="M50.424 1V3.272H45.848V17H43.576V3.272H39V1H50.424Z"/>
<path d="M68.424 17H59.272V14.728H68.424V17ZM57 3.272H59.272V14.728H57V3.272ZM68.424 1V3.272H59.272V1H68.424Z"/>
<path d="M85.152 1H87.424V17H85.152V10.152H78.272V17H76V1H78.272V7.848H85.152V1Z"/>
<path d="M102.848 3.272H100.576V14.728H102.848V17H96V14.728H98.272V3.272H96V1H102.848V3.272Z"/>
<path d="M123.424 7.848H121.152V3.272H123.424V7.848ZM114.272 7.848H121.152V10.152H114.272V14.728H121.152V17H112V1H121.152V3.272H114.272V7.848ZM123.424 14.728H121.152V10.152H123.424V14.728Z"/>
<path d="M134.272 17V14.728H141.152V17H134.272ZM132 3.272H134.272V14.728H132V3.272ZM141.152 1V3.272H134.272V1H141.152ZM141.152 3.272H143.424V14.728H141.152V3.272Z"/>
<path d="M161.152 1V3.272H154.272V1H161.152ZM161.152 3.272H163.424V17H161.152V10.152H154.272V17H152V3.272H154.272V7.848H161.152V3.272Z"/>
<path d="M183.424 7.848H181.152V3.272H183.424V7.848ZM174.272 7.848H181.152V10.152H183.424V17H181.152V10.152H174.272V17H172V1H181.152V3.272H174.272V7.848Z"/>
<path d="M194.272 3.272V14.728H201.152V17H192V1H201.152V3.272H194.272ZM201.152 3.272H203.424V14.728H201.152V3.272Z"/>
</mask>
<path d="M12.424 17H3.272V14.728H10.152V7.848H12.424V17ZM1 3.272H3.272V14.728H1V3.272ZM12.424 1V3.272H3.272V1H12.424Z" fill="white"/>
<path d="M23.272 17V14.728H30.152V17H23.272ZM21 3.272H23.272V14.728H21V3.272ZM30.152 1V3.272H23.272V1H30.152ZM30.152 3.272H32.424V14.728H30.152V3.272Z" fill="white"/>
<path d="M50.424 1V3.272H45.848V17H43.576V3.272H39V1H50.424Z" fill="white"/>
<path d="M68.424 17H59.272V14.728H68.424V17ZM57 3.272H59.272V14.728H57V3.272ZM68.424 1V3.272H59.272V1H68.424Z" fill="white"/>
<path d="M85.152 1H87.424V17H85.152V10.152H78.272V17H76V1H78.272V7.848H85.152V1Z" fill="white"/>
<path d="M102.848 3.272H100.576V14.728H102.848V17H96V14.728H98.272V3.272H96V1H102.848V3.272Z" fill="white"/>
<path d="M123.424 7.848H121.152V3.272H123.424V7.848ZM114.272 7.848H121.152V10.152H114.272V14.728H121.152V17H112V1H121.152V3.272H114.272V7.848ZM123.424 14.728H121.152V10.152H123.424V14.728Z" fill="white"/>
<path d="M134.272 17V14.728H141.152V17H134.272ZM132 3.272H134.272V14.728H132V3.272ZM141.152 1V3.272H134.272V1H141.152ZM141.152 3.272H143.424V14.728H141.152V3.272Z" fill="white"/>
<path d="M161.152 1V3.272H154.272V1H161.152ZM161.152 3.272H163.424V17H161.152V10.152H154.272V17H152V3.272H154.272V7.848H161.152V3.272Z" fill="white"/>
<path d="M183.424 7.848H181.152V3.272H183.424V7.848ZM174.272 7.848H181.152V10.152H183.424V17H181.152V10.152H174.272V17H172V1H181.152V3.272H174.272V7.848Z" fill="white"/>
<path d="M194.272 3.272V14.728H201.152V17H192V1H201.152V3.272H194.272ZM201.152 3.272H203.424V14.728H201.152V3.272Z" fill="white"/>
<path d="M12.424 17V17.4H12.824V17H12.424ZM3.272 17H2.872V17.4H3.272V17ZM10.152 14.728V15.128H10.552V14.728H10.152ZM10.152 7.848V7.448H9.752V7.848H10.152ZM12.424 7.848H12.824V7.448H12.424V7.848ZM1 3.272V2.872H0.6V3.272H1ZM1 14.728H0.6V15.128H1V14.728ZM12.424 1H12.824V0.6H12.424V1ZM12.424 3.272V3.672H12.824V3.272H12.424ZM3.272 1V0.6H2.872V1H3.272ZM23.272 17H22.872V17.4H23.272V17ZM30.152 17V17.4H30.552V17H30.152ZM21 3.272V2.872H20.6V3.272H21ZM21 14.728H20.6V15.128H21V14.728ZM30.152 1H30.552V0.6H30.152V1ZM23.272 1V0.6H22.872V1H23.272ZM32.424 3.272H32.824V2.872H32.424V3.272ZM32.424 14.728V15.128H32.824V14.728H32.424ZM50.424 1H50.824V0.6H50.424V1ZM50.424 3.272V3.672H50.824V3.272H50.424ZM45.848 3.272V2.872H45.448V3.272H45.848ZM45.848 17V17.4H46.248V17H45.848ZM43.576 17H43.176V17.4H43.576V17ZM43.576 3.272H43.976V2.872H43.576V3.272ZM39 3.272H38.6V3.672H39V3.272ZM39 1V0.6H38.6V1H39ZM68.424 17V17.4H68.824V17H68.424ZM59.272 17H58.872V17.4H59.272V17ZM68.424 14.728H68.824V14.328H68.424V14.728ZM57 3.272V2.872H56.6V3.272H57ZM57 14.728H56.6V15.128H57V14.728ZM68.424 1H68.824V0.6H68.424V1ZM68.424 3.272V3.672H68.824V3.272H68.424ZM59.272 1V0.6H58.872V1H59.272ZM85.152 1V0.6H84.752V1H85.152ZM87.424 1H87.824V0.6H87.424V1ZM87.424 17V17.4H87.824V17H87.424ZM85.152 17H84.752V17.4H85.152V17ZM85.152 10.152H85.552V9.752H85.152V10.152ZM78.272 10.152V9.752H77.872V10.152H78.272ZM78.272 17V17.4H78.672V17H78.272ZM76 17H75.6V17.4H76V17ZM76 1V0.6H75.6V1H76ZM78.272 1H78.672V0.6H78.272V1ZM78.272 7.848H77.872V8.248H78.272V7.848ZM85.152 7.848V8.248H85.552V7.848H85.152ZM102.848 3.272V3.672H103.248V3.272H102.848ZM100.576 3.272V2.872H100.176V3.272H100.576ZM100.576 14.728H100.176V15.128H100.576V14.728ZM102.848 14.728H103.248V14.328H102.848V14.728ZM102.848 17V17.4H103.248V17H102.848ZM96 17H95.6V17.4H96V17ZM96 14.728V14.328H95.6V14.728H96ZM98.272 14.728V15.128H98.672V14.728H98.272ZM98.272 3.272H98.672V2.872H98.272V3.272ZM96 3.272H95.6V3.672H96V3.272ZM96 1V0.6H95.6V1H96ZM102.848 1H103.248V0.6H102.848V1ZM123.424 7.848V8.248H123.824V7.848H123.424ZM123.424 3.272H123.824V2.872H123.424V3.272ZM114.272 7.848H113.872V8.248H114.272V7.848ZM114.272 10.152V9.752H113.872V10.152H114.272ZM114.272 14.728H113.872V15.128H114.272V14.728ZM121.152 17V17.4H121.552V17H121.152ZM112 17H111.6V17.4H112V17ZM112 1V0.6H111.6V1H112ZM121.152 1H121.552V0.6H121.152V1ZM114.272 3.272V2.872H113.872V3.272H114.272ZM123.424 14.728V15.128H123.824V14.728H123.424ZM123.424 10.152H123.824V9.752H123.424V10.152ZM134.272 17H133.872V17.4H134.272V17ZM141.152 17V17.4H141.552V17H141.152ZM132 3.272V2.872H131.6V3.272H132ZM132 14.728H131.6V15.128H132V14.728ZM141.152 1H141.552V0.6H141.152V1ZM134.272 1V0.6H133.872V1H134.272ZM143.424 3.272H143.824V2.872H143.424V3.272ZM143.424 14.728V15.128H143.824V14.728H143.424ZM161.152 1H161.552V0.6H161.152V1ZM154.272 1V0.6H153.872V1H154.272ZM163.424 3.272H163.824V2.872H163.424V3.272ZM163.424 17V17.4H163.824V17H163.424ZM161.152 17H160.752V17.4H161.152V17ZM161.152 10.152H161.552V9.752H161.152V10.152ZM154.272 10.152V9.752H153.872V10.152H154.272ZM154.272 17V17.4H154.672V17H154.272ZM152 17H151.6V17.4H152V17ZM152 3.272V2.872H151.6V3.272H152ZM154.272 7.848H153.872V8.248H154.272V7.848ZM161.152 7.848V8.248H161.552V7.848H161.152ZM183.424 7.848V8.248H183.824V7.848H183.424ZM183.424 3.272H183.824V2.872H183.424V3.272ZM174.272 7.848H173.872V8.248H174.272V7.848ZM183.424 10.152H183.824V9.752H183.424V10.152ZM183.424 17V17.4H183.824V17H183.424ZM181.152 17H180.752V17.4H181.152V17ZM174.272 10.152V9.752H173.872V10.152H174.272ZM174.272 17V17.4H174.672V17H174.272ZM172 17H171.6V17.4H172V17ZM172 1V0.6H171.6V1H172ZM181.152 1H181.552V0.6H181.152V1ZM174.272 3.272V2.872H173.872V3.272H174.272ZM194.272 3.272V2.872H193.872V3.272H194.272ZM194.272 14.728H193.872V15.128H194.272V14.728ZM201.152 17V17.4H201.552V17H201.152ZM192 17H191.6V17.4H192V17ZM192 1V0.6H191.6V1H192ZM201.152 1H201.552V0.6H201.152V1ZM203.424 3.272H203.824V2.872H203.424V3.272ZM203.424 14.728V15.128H203.824V14.728H203.424ZM12.424 16.6H3.272V17.4H12.424V16.6ZM3.672 17V14.728H2.872V17H3.672ZM3.272 15.128H10.152V14.328H3.272V15.128ZM10.552 14.728V7.848H9.752V14.728H10.552ZM10.152 8.248H12.424V7.448H10.152V8.248ZM12.024 7.848V17H12.824V7.848H12.024ZM1 3.672H3.272V2.872H1V3.672ZM2.872 3.272V14.728H3.672V3.272H2.872ZM3.272 14.328H1V15.128H3.272V14.328ZM1.4 14.728V3.272H0.6V14.728H1.4ZM12.024 1V3.272H12.824V1H12.024ZM12.424 2.872H3.272V3.672H12.424V2.872ZM3.672 3.272V1H2.872V3.272H3.672ZM3.272 1.4H12.424V0.6H3.272V1.4ZM23.672 17V14.728H22.872V17H23.672ZM23.272 15.128H30.152V14.328H23.272V15.128ZM29.752 14.728V17H30.552V14.728H29.752ZM30.152 16.6H23.272V17.4H30.152V16.6ZM21 3.672H23.272V2.872H21V3.672ZM22.872 3.272V14.728H23.672V3.272H22.872ZM23.272 14.328H21V15.128H23.272V14.328ZM21.4 14.728V3.272H20.6V14.728H21.4ZM29.752 1V3.272H30.552V1H29.752ZM30.152 2.872H23.272V3.672H30.152V2.872ZM23.672 3.272V1H22.872V3.272H23.672ZM23.272 1.4H30.152V0.6H23.272V1.4ZM30.152 3.672H32.424V2.872H30.152V3.672ZM32.024 3.272V14.728H32.824V3.272H32.024ZM32.424 14.328H30.152V15.128H32.424V14.328ZM30.552 14.728V3.272H29.752V14.728H30.552ZM50.024 1V3.272H50.824V1H50.024ZM50.424 2.872H45.848V3.672H50.424V2.872ZM45.448 3.272V17H46.248V3.272H45.448ZM45.848 16.6H43.576V17.4H45.848V16.6ZM43.976 17V3.272H43.176V17H43.976ZM43.576 2.872H39V3.672H43.576V2.872ZM39.4 3.272V1H38.6V3.272H39.4ZM39 1.4H50.424V0.6H39V1.4ZM68.424 16.6H59.272V17.4H68.424V16.6ZM59.672 17V14.728H58.872V17H59.672ZM59.272 15.128H68.424V14.328H59.272V15.128ZM68.024 14.728V17H68.824V14.728H68.024ZM57 3.672H59.272V2.872H57V3.672ZM58.872 3.272V14.728H59.672V3.272H58.872ZM59.272 14.328H57V15.128H59.272V14.328ZM57.4 14.728V3.272H56.6V14.728H57.4ZM68.024 1V3.272H68.824V1H68.024ZM68.424 2.872H59.272V3.672H68.424V2.872ZM59.672 3.272V1H58.872V3.272H59.672ZM59.272 1.4H68.424V0.6H59.272V1.4ZM85.152 1.4H87.424V0.6H85.152V1.4ZM87.024 1V17H87.824V1H87.024ZM87.424 16.6H85.152V17.4H87.424V16.6ZM85.552 17V10.152H84.752V17H85.552ZM85.152 9.752H78.272V10.552H85.152V9.752ZM77.872 10.152V17H78.672V10.152H77.872ZM78.272 16.6H76V17.4H78.272V16.6ZM76.4 17V1H75.6V17H76.4ZM76 1.4H78.272V0.6H76V1.4ZM77.872 1V7.848H78.672V1H77.872ZM78.272 8.248H85.152V7.448H78.272V8.248ZM85.552 7.848V1H84.752V7.848H85.552ZM102.848 2.872H100.576V3.672H102.848V2.872ZM100.176 3.272V14.728H100.976V3.272H100.176ZM100.576 15.128H102.848V14.328H100.576V15.128ZM102.448 14.728V17H103.248V14.728H102.448ZM102.848 16.6H96V17.4H102.848V16.6ZM96.4 17V14.728H95.6V17H96.4ZM96 15.128H98.272V14.328H96V15.128ZM98.672 14.728V3.272H97.872V14.728H98.672ZM98.272 2.872H96V3.672H98.272V2.872ZM96.4 3.272V1H95.6V3.272H96.4ZM96 1.4H102.848V0.6H96V1.4ZM102.448 1V3.272H103.248V1H102.448ZM123.424 7.448H121.152V8.248H123.424V7.448ZM121.552 7.848V3.272H120.752V7.848H121.552ZM121.152 3.672H123.424V2.872H121.152V3.672ZM123.024 3.272V7.848H123.824V3.272H123.024ZM114.272 8.248H121.152V7.448H114.272V8.248ZM120.752 7.848V10.152H121.552V7.848H120.752ZM121.152 9.752H114.272V10.552H121.152V9.752ZM113.872 10.152V14.728H114.672V10.152H113.872ZM114.272 15.128H121.152V14.328H114.272V15.128ZM120.752 14.728V17H121.552V14.728H120.752ZM121.152 16.6H112V17.4H121.152V16.6ZM112.4 17V1H111.6V17H112.4ZM112 1.4H121.152V0.6H112V1.4ZM120.752 1V3.272H121.552V1H120.752ZM121.152 2.872H114.272V3.672H121.152V2.872ZM113.872 3.272V7.848H114.672V3.272H113.872ZM123.424 14.328H121.152V15.128H123.424V14.328ZM121.552 14.728V10.152H120.752V14.728H121.552ZM121.152 10.552H123.424V9.752H121.152V10.552ZM123.024 10.152V14.728H123.824V10.152H123.024ZM134.672 17V14.728H133.872V17H134.672ZM134.272 15.128H141.152V14.328H134.272V15.128ZM140.752 14.728V17H141.552V14.728H140.752ZM141.152 16.6H134.272V17.4H141.152V16.6ZM132 3.672H134.272V2.872H132V3.672ZM133.872 3.272V14.728H134.672V3.272H133.872ZM134.272 14.328H132V15.128H134.272V14.328ZM132.4 14.728V3.272H131.6V14.728H132.4ZM140.752 1V3.272H141.552V1H140.752ZM141.152 2.872H134.272V3.672H141.152V2.872ZM134.672 3.272V1H133.872V3.272H134.672ZM134.272 1.4H141.152V0.6H134.272V1.4ZM141.152 3.672H143.424V2.872H141.152V3.672ZM143.024 3.272V14.728H143.824V3.272H143.024ZM143.424 14.328H141.152V15.128H143.424V14.328ZM141.552 14.728V3.272H140.752V14.728H141.552ZM160.752 1V3.272H161.552V1H160.752ZM161.152 2.872H154.272V3.672H161.152V2.872ZM154.672 3.272V1H153.872V3.272H154.672ZM154.272 1.4H161.152V0.6H154.272V1.4ZM161.152 3.672H163.424V2.872H161.152V3.672ZM163.024 3.272V17H163.824V3.272H163.024ZM163.424 16.6H161.152V17.4H163.424V16.6ZM161.552 17V10.152H160.752V17H161.552ZM161.152 9.752H154.272V10.552H161.152V9.752ZM153.872 10.152V17H154.672V10.152H153.872ZM154.272 16.6H152V17.4H154.272V16.6ZM152.4 17V3.272H151.6V17H152.4ZM152 3.672H154.272V2.872H152V3.672ZM153.872 3.272V7.848H154.672V3.272H153.872ZM154.272 8.248H161.152V7.448H154.272V8.248ZM161.552 7.848V3.272H160.752V7.848H161.552ZM183.424 7.448H181.152V8.248H183.424V7.448ZM181.552 7.848V3.272H180.752V7.848H181.552ZM181.152 3.672H183.424V2.872H181.152V3.672ZM183.024 3.272V7.848H183.824V3.272H183.024ZM174.272 8.248H181.152V7.448H174.272V8.248ZM180.752 7.848V10.152H181.552V7.848H180.752ZM181.152 10.552H183.424V9.752H181.152V10.552ZM183.024 10.152V17H183.824V10.152H183.024ZM183.424 16.6H181.152V17.4H183.424V16.6ZM181.552 17V10.152H180.752V17H181.552ZM181.152 9.752H174.272V10.552H181.152V9.752ZM173.872 10.152V17H174.672V10.152H173.872ZM174.272 16.6H172V17.4H174.272V16.6ZM172.4 17V1H171.6V17H172.4ZM172 1.4H181.152V0.6H172V1.4ZM180.752 1V3.272H181.552V1H180.752ZM181.152 2.872H174.272V3.672H181.152V2.872ZM173.872 3.272V7.848H174.672V3.272H173.872ZM193.872 3.272V14.728H194.672V3.272H193.872ZM194.272 15.128H201.152V14.328H194.272V15.128ZM200.752 14.728V17H201.552V14.728H200.752ZM201.152 16.6H192V17.4H201.152V16.6ZM192.4 17V1H191.6V17H192.4ZM192 1.4H201.152V0.6H192V1.4ZM200.752 1V3.272H201.552V1H200.752ZM201.152 2.872H194.272V3.672H201.152V2.872ZM201.152 3.672H203.424V2.872H201.152V3.672ZM203.024 3.272V14.728H203.824V3.272H203.024ZM203.424 14.328H201.152V15.128H203.424V14.328ZM201.552 14.728V3.272H200.752V14.728H201.552Z" fill="white" mask="url(#path-1-outside-1_1464_1338)"/>
</svg>
