<svg width="32" height="32" viewBox="0 0 32 32" fill="none" xmlns="http://www.w3.org/2000/svg">
<path d="M30.8571 14.8571H17.1429V1.14286C17.1429 0.511732 16.6311 0 16 0H1.14286C0.511732 0 0 0.511732 0 1.14286V30.8571C0 31.4883 0.511732 32 1.14286 32H30.8571C31.4883 32 32 31.4883 32 30.8571V16C32 15.3689 31.4883 14.8571 30.8571 14.8571ZM29.7143 24.1032C26.849 24.5869 24.587 26.8488 24.1033 29.7142H17.143V25.6409C21.5864 25.117 25.1175 21.5861 25.6413 17.1427H29.7145L29.7143 24.1032ZM29.7143 29.7142H26.4304C26.8449 28.1098 28.11 26.8447 29.7143 26.4302V29.7142ZM2.28571 7.89669C5.15102 7.41302 7.41303 5.15102 7.89669 2.28571H14.857V6.35892C10.4136 6.8829 6.88248 10.4138 6.35873 14.8572H2.28552L2.28571 7.89669ZM2.28571 2.28571H5.56963C5.15509 3.89002 3.89002 5.15513 2.28571 5.56963V2.28571ZM14.8571 17.1429V23.3314C11.6768 22.8368 9.16323 20.3233 8.6686 17.1429H14.8571ZM17.1429 17.1429H23.3411C22.8477 20.3245 20.3235 22.8285 17.1429 23.3239V17.1429ZM14.8571 14.8571H8.67605C9.17145 11.6765 11.6756 9.15233 14.8571 8.65894V14.8571ZM2.28571 29.7143V26.4304C3.89002 26.8449 5.15513 28.11 5.56963 29.7143H2.28571ZM2.28571 24.1033V17.143H6.35892C6.8829 21.5864 10.4138 25.1175 14.8572 25.6413V29.7145H7.89688C7.41321 26.8492 5.15122 24.5872 2.28591 24.1035L2.28571 24.1033Z" fill="white"/>
</svg>
