<svg width="24" height="22" viewBox="0 0 24 22" fill="none" xmlns="http://www.w3.org/2000/svg">
<path fill-rule="evenodd" clip-rule="evenodd" d="M2.02041 0.979592V1.95918H1.0102H0V10.9592V19.9592H1.0102H2.02041V20.9388V21.9184H11.0204H20.0204V20.9388V19.9592H21H21.9796V16.9592V13.9592H22.9898H24V10.9592V7.95918H22.9898H21.9796V4.95918V1.95918H21H20.0204V0.979592V0H11.0204H2.02041V0.979592ZM20.0204 3.94898V5.93878L17.0051 5.94147C15.3467 5.943 13.5421 5.94184 12.9949 5.9389L12 5.93363V10.9592V15.9847L12.9949 15.9795C13.5421 15.9765 15.3467 15.9754 17.0051 15.9769L20.0204 15.9796V17.9694V19.9592H11.0204H2.02041V10.9592V1.95918H11.0204H20.0204V3.94898ZM21.9796 10.9592V13.9592H18H14.0204V10.9592V7.95918H18H21.9796V10.9592ZM15.9796 10.9592V11.9388H16.9898H18V10.9592V9.97959H16.9898H15.9796V10.9592Z" fill="white"/>
</svg>
